<svg width="163" height="53" viewBox="0 0 163 53" fill="none" xmlns="http://www.w3.org/2000/svg">
<path d="M41.2442 34.7177C40.6872 31.9712 38.459 30.1403 36.9272 29.0941C37.9021 27.3939 39.5731 24.2552 38.8768 22.8166C38.7376 22.2934 38.459 22.1627 38.0413 22.1627C37.6235 22.1627 36.9272 22.4242 36.0916 22.6858C36.231 22.1627 36.6488 20.0702 36.5094 17.7161C36.5094 17.7161 38.0413 17.4545 39.7123 18.7623C39.7123 12.8772 35.1169 9.34614 35.1169 9.34614C35.1169 9.34614 37.4843 8.56147 39.0162 9.08459C34.142 2.02239 25.9258 3.98412 25.9258 3.98412C25.9258 3.98412 25.7866 2.0224 27.7362 1.10693C10.3289 1.10693 9.77189 12.6157 9.77189 12.6157C9.77189 12.6157 8.37931 11.3079 7.68301 9.47692C5.87267 13.4004 7.26524 22.0319 7.40449 22.555C6.70821 22.2934 6.01192 22.0319 5.45488 22.0319C4.89785 22.0319 4.7586 22.2934 4.61933 22.8166C3.92304 24.2552 5.59415 27.3939 6.56896 29.0941C5.03712 30.1403 2.80899 31.8405 2.25195 34.7177C2.25195 34.7177 3.78379 34.3253 5.17637 34.1945C4.20156 37.5948 3.50528 42.1722 5.59415 45.3109C6.15117 44.3955 7.54376 43.2184 7.54376 43.2184C8.37931 44.5262 13.1141 48.3189 18.1274 49.7575C19.5199 50.5422 20.4948 50.9345 20.634 50.9345L21.7481 51.3269L22.8622 50.9345C23.0014 50.9345 23.9762 50.5422 25.3688 49.7575C30.3821 48.3189 35.1169 44.5262 35.9524 43.2184C35.9524 43.2184 37.3449 44.5262 37.9021 45.3109C39.9909 42.1722 39.2946 37.5948 38.3198 34.1945C39.7123 34.3253 41.2442 34.7177 41.2442 34.7177Z" fill="#474747"/>
<path fill-rule="evenodd" clip-rule="evenodd" d="M32.4711 26.871C32.4711 23.4707 28.572 22.2936 26.0653 23.7322C24.8119 24.5169 23.5586 25.4324 21.7483 25.4324C19.9378 25.4324 18.8239 24.5169 17.4312 23.7322C14.9246 22.2936 11.0254 23.4707 11.0254 26.871C11.0254 30.2713 14.9246 32.7561 14.5069 32.7561C8.79726 43.3494 21.7483 48.3191 21.7483 48.3191C21.7483 48.3191 34.6993 43.3494 28.9897 32.7561C28.7112 32.7561 32.4711 30.1405 32.4711 26.871Z" fill="#8C8C8C"/>
<path d="M21.7481 52.373L20.2163 51.7191C20.0771 51.7191 19.1022 51.3268 17.7097 50.5421C13.3926 49.2343 9.35411 46.4879 7.54377 44.6569C7.12599 45.0493 6.84747 45.4416 6.56895 45.7032L5.73341 47.2725L4.75861 45.834C2.66973 42.826 2.94825 38.7718 3.64454 35.3715C2.94825 35.5022 2.53047 35.633 2.53047 35.633L0.859375 36.0254L1.13789 34.456C1.69492 31.8404 3.50529 29.8786 5.17638 28.7016C3.0875 24.7782 3.22677 23.2088 3.50529 22.4241C3.78379 21.3779 4.75861 20.8547 6.01193 21.1163C5.73341 18.2391 5.17638 12.354 6.70822 9.21524L7.68302 6.99196L8.65783 9.21524C8.79709 9.60758 9.07559 9.86914 9.21486 10.2615C10.4682 6.59961 14.5067 0.0605469 27.5969 0.0605469H31.7747L28.0147 2.02227C27.5969 2.28383 27.3185 2.54539 27.0399 2.80696C29.9643 2.67618 35.8132 3.06852 39.5731 8.56133L41.2442 11.0462L38.1805 9.99993C37.9021 9.86914 37.3449 9.86914 36.788 9.86914C38.3198 11.4385 40.2695 14.4465 40.2695 18.6315V20.724L38.459 19.2854C37.9021 18.893 37.4843 18.7622 37.0665 18.6315C37.0665 19.5469 37.0665 20.3316 36.9272 20.9855C38.1805 20.724 39.016 21.2471 39.4339 22.2933C39.8517 23.078 39.9909 24.6474 37.9021 28.5708C39.5731 29.7479 41.3834 31.5788 41.9406 34.3252L42.219 35.8946L40.5479 35.5022C40.5479 35.5022 40.1301 35.3715 39.4339 35.2407C40.1301 38.5102 40.4087 42.6952 38.459 45.5724L37.4843 47.011L36.6488 45.4416C36.5094 45.18 36.0916 44.7877 35.8132 44.3954C34.0028 46.2263 29.9643 49.1035 25.508 50.2805C24.1155 51.0652 23.1406 51.4575 23.0014 51.4575L21.7481 52.373ZM7.82227 41.3874L8.51858 42.5644C9.21486 43.6107 13.6711 47.2725 18.5452 48.7111L18.8236 48.8419C20.0771 49.6266 21.0518 50.019 21.191 50.019L21.8873 50.2805L22.5837 50.019C22.5837 50.019 23.5584 49.6266 24.9511 48.8419L25.2295 48.7111C30.1035 47.4033 34.5598 43.6107 35.2561 42.5644L35.9524 41.3874L36.9272 42.3029C37.0665 42.4336 37.4843 42.6952 37.9021 43.2183C38.8768 40.4719 38.3198 36.9408 37.4843 34.3252L37.0665 32.8866L38.7376 33.1482C39.016 33.1482 39.4339 33.279 39.8517 33.279C39.016 31.7096 37.6235 30.6633 36.5094 30.0094L35.6739 29.4863L36.0916 28.7016C38.459 24.5166 38.0413 23.4704 38.0413 23.3396C37.6235 23.4704 37.0665 23.6011 36.6488 23.7319L34.2814 24.3858L34.9775 22.4241C35.1169 22.0318 35.5347 20.07 35.3953 17.716V16.8005L36.3702 16.6697C36.5094 16.6697 37.3449 16.539 38.459 16.9313C37.7627 12.7463 34.4206 10.2615 34.4206 10.1307L32.8887 8.95368L34.8383 8.43055C34.9775 8.43055 35.8132 8.16899 36.788 8.03821C32.4709 3.59164 26.4828 4.89946 26.2044 5.03024L24.9511 5.2918V4.11477C24.9511 4.11477 24.9511 3.1993 25.3689 2.28383C11.443 3.1993 10.886 12.354 10.886 12.7463L10.7467 15.1004L8.93634 13.4002C8.93634 13.4002 8.51858 13.0079 7.96154 12.354C7.4045 16.4082 8.24006 22.0318 8.37931 22.5549L8.93634 24.5166L6.98673 23.6011C6.56895 23.4704 6.01193 23.2088 5.59415 23.2088C5.59415 23.3396 5.17638 24.3858 7.54377 28.5708L7.96154 29.3555L7.12599 29.8786C6.01193 30.5325 4.61934 31.7096 3.78379 33.1482C4.06231 33.1482 4.48009 33.0174 4.89786 33.0174L6.56895 32.7558L6.15118 34.1944C5.31563 36.81 4.75861 40.3411 5.73341 43.0875C6.15118 42.5644 6.56895 42.1721 6.70822 42.1721L7.82227 41.3874Z" fill="#BEC0B5"/>
<path d="M53.3596 39.9486C50.853 38.6408 48.9034 36.9406 47.5109 34.5866C46.1182 32.2325 45.4219 29.6169 45.4219 26.4781C45.4219 23.3394 46.1182 20.7238 47.5109 18.3697C48.9034 16.0156 50.853 14.1847 53.3596 13.0077C55.8663 11.8307 58.7908 11.1768 61.9936 11.1768C66.3106 11.1768 69.9314 12.223 72.8557 14.3155V18.3697C70.2099 16.2772 66.7284 15.1002 62.4114 15.1002C60.0441 15.1002 57.8159 15.6233 56.0056 16.5388C54.1952 17.4542 52.6633 18.762 51.6886 20.593C50.5745 22.2931 50.1567 24.3856 50.1567 26.6089C50.1567 28.8322 50.7137 30.9247 51.6886 32.6249C52.6633 34.325 54.1952 35.7636 56.1448 36.6791C57.9551 37.5945 60.1833 38.1177 62.5507 38.1177C64.7788 38.1177 66.7284 37.8561 68.5389 37.333C70.3491 36.8099 71.881 35.8944 73.4129 34.7174V38.9024C70.4883 40.8641 66.8678 41.9103 61.9936 41.9103C58.7908 41.9103 55.8663 41.2564 53.3596 39.9486Z" fill="#484848"/>
<path d="M78.9831 40.0797C77.4514 38.7719 76.6157 37.2025 76.6157 34.9792C76.6157 32.7559 77.3121 31.0558 78.8439 29.7479C80.3758 28.5709 82.4647 27.917 85.2498 27.917C88.1742 27.917 90.6808 28.4401 92.7697 29.6172V28.5709C92.7697 27.0015 92.2127 25.8245 91.238 25.0398C90.2631 24.2551 88.592 23.8628 86.3639 23.8628C84.9713 23.8628 83.718 23.9936 82.4647 24.2551C81.2113 24.5167 80.0972 24.7783 79.1225 25.3014V21.9011C79.958 21.5087 81.2113 21.2472 82.6039 20.9856C83.9965 20.724 85.389 20.5933 86.7817 20.5933C90.4024 20.5933 92.909 21.3779 94.7193 22.8165C96.3904 24.2551 97.2259 26.3476 97.2259 28.9633V41.5183H92.909V39.295C91.9341 40.2104 90.8202 40.9951 89.5669 41.5183C88.3134 42.0414 86.7817 42.1722 84.9713 42.1722C82.6039 41.9106 80.515 41.2567 78.9831 40.0797ZM90.2631 37.8564C91.3772 37.3333 92.3519 36.5486 92.909 35.6331V32.8867C90.9594 31.7097 88.7312 31.0558 86.3639 31.0558C84.6927 31.0558 83.3002 31.3173 82.4647 31.9712C81.6291 32.6251 81.2114 33.5406 81.2114 34.8484C81.2114 37.3333 82.8824 38.5103 86.3639 38.5103C87.7564 38.6411 89.0098 38.3795 90.2631 37.8564Z" fill="#484848"/>
<path d="M105.164 40.0798C104.05 38.9027 103.353 37.2026 103.353 35.1101V24.386H100.15V21.1165H103.353V15.1006H107.949V21.1165H113.241V24.386H107.949V34.8485C107.949 36.1563 108.227 37.2026 108.784 37.7257C109.341 38.2488 110.316 38.5104 111.848 38.5104C112.684 38.5104 113.519 38.3796 114.494 37.9873V41.3876C113.38 41.7799 111.987 41.9107 110.316 41.9107C108.088 41.9107 106.417 41.2568 105.164 40.0798Z" fill="#484848"/>
<path d="M120.482 39.6871C118.95 38.2485 118.254 36.2868 118.254 33.8019V20.9854H122.71V33.6711C122.71 36.9407 124.381 38.51 127.863 38.51C130.926 38.51 133.294 37.2022 134.965 34.7174V20.9854H139.421V41.2564H134.965V38.3793C133.99 39.5563 132.737 40.4718 131.344 40.9949C129.952 41.518 128.698 41.9104 127.027 41.9104C124.103 41.9104 121.875 41.1257 120.482 39.6871Z" fill="#484848"/>
<path d="M148.612 41.3874C146.941 40.9951 145.549 40.6027 144.713 39.9488V36.2869C145.827 36.9408 147.22 37.464 148.752 37.8563C150.283 38.2487 151.815 38.5102 153.208 38.5102C154.879 38.5102 155.993 38.3794 156.829 37.9871C157.525 37.5947 157.943 37.0716 157.943 36.1562C157.943 35.5022 157.803 34.9791 157.386 34.7176C157.107 34.3252 156.411 34.0637 155.575 33.6713C154.74 33.4097 153.486 33.0174 151.815 32.6251C150.005 32.1019 148.612 31.7096 147.638 31.1865C146.663 30.6633 145.827 30.0094 145.27 29.3555C144.713 28.7016 144.435 27.6554 144.435 26.3476C144.435 24.3858 145.27 22.9472 146.941 21.901C148.612 20.8547 150.84 20.4624 153.486 20.4624C154.879 20.4624 156.272 20.5932 157.664 20.8547C159.057 21.1163 160.171 21.5087 161.006 21.901V25.4321C160.171 24.909 159.057 24.6474 157.803 24.2551C156.55 23.9935 155.297 23.8627 153.904 23.8627C152.372 23.8627 151.119 23.9935 150.283 24.3858C149.448 24.7782 149.03 25.4321 149.03 26.3476C149.03 27.0015 149.169 27.3938 149.587 27.7862C150.005 28.1785 150.562 28.4401 151.258 28.7016C152.094 28.9632 153.347 29.3555 155.018 29.7479C157.664 30.4018 159.614 31.3172 160.728 32.2327C161.842 33.1482 162.26 34.456 162.26 36.1562C162.26 37.8563 161.424 39.2949 160.032 40.3412C158.5 41.3874 156.272 41.9105 153.208 41.9105C151.815 41.9105 150.283 41.7797 148.612 41.3874Z" fill="#484848"/>
</svg>
